<svg data-v-fde0c5aa="" xmlns="http://www.w3.org/2000/svg" viewBox="0 0 300 300" class="font"><!----><defs data-v-fde0c5aa=""><!----></defs><rect data-v-fde0c5aa="" fill="#FAF6F1" x="0" y="0" width="300px" height="300px" class="logo-background-square"></rect><defs data-v-fde0c5aa=""><linearGradient data-v-fde0c5aa="" gradientTransform="rotate(25)" id="3ec360fb-d3d5-431d-91a8-72ad6bbf5768" x1="0%" y1="0%" x2="100%" y2="0%"><stop data-v-fde0c5aa="" offset="0%" stop-color="#913C00" stop-opacity="1"></stop><stop data-v-fde0c5aa="" offset="100%" stop-color="#D9AD76" stop-opacity="1"></stop></linearGradient></defs><g data-v-fde0c5aa="" id="e2e79a27-d929-4903-b4ba-c9cb372f0e02" fill="url(#3ec360fb-d3d5-431d-91a8-72ad6bbf5768)" transform="matrix(7.4576271186440675,0,0,7.4576271186440675,35.823728795778955,109.05762704752259)"><path d="M2.61 5.96L2.62 8.09L2.66 9.25Q2.66 9.60 2.69 9.79Q2.73 9.97 2.79 10.07L2.79 10.07L3.90 10.22L3.90 10.57L2.06 10.53L0.57 10.57L0.57 10.22L1.38 10.07L1.48 8.09L1.48 3.72L1.38 1.74L0.56 1.60L0.56 1.24L2.06 1.27L6.91 1.27Q6.91 1.60 7.04 2.12L7.04 2.12Q7.14 2.60 7.30 2.95L7.30 2.95L6.93 3.06L6.43 2.20Q6.41 2.19 6.26 2.17L6.26 2.17Q5.85 2.10 5.41 2.10L5.41 2.10Q4.58 2.01 3.24 2.01L3.24 2.01L2.75 2.01L2.69 2.76Q2.62 3.50 2.62 4.50L2.62 4.50L2.62 5.34L3.32 5.34L5.03 5.30Q5.28 5.30 5.51 5.29Q5.74 5.28 5.79 5.24L5.79 5.24L6.02 4.63L6.37 4.63L6.31 5.67Q6.31 5.95 6.33 6.19Q6.34 6.43 6.39 6.72L6.39 6.72L6.01 6.72L5.78 6.04L3.32 5.96L2.61 5.96ZM9.93 6.97L9.93 7.82L10.00 10.07L10.96 10.22L10.96 10.57L9.40 10.53L8.02 10.57L8.02 10.22L8.84 10.07L8.88 7.83L8.88 6.29L8.82 3.93L7.91 3.78L7.91 3.43Q8.17 3.43 8.32 3.41Q8.47 3.40 8.82 3.32Q9.17 3.25 9.65 3.11L9.65 3.11L9.93 3.11L9.82 5.29Q10.29 4.21 10.87 3.65L10.87 3.65Q11.13 3.38 11.43 3.25Q11.74 3.11 12.07 3.11L12.07 3.11Q12.20 3.11 12.33 3.13Q12.46 3.16 12.60 3.20Q12.74 3.24 12.84 3.32L12.84 3.32Q12.58 3.81 12.39 4.25L12.39 4.25Q12.36 4.34 12.27 4.57Q12.19 4.80 12.15 4.91L12.15 4.91Q11.91 4.86 11.87 4.79L11.87 4.79Q11.87 4.69 11.89 4.66L11.89 4.66Q11.89 4.15 11.80 4.10Q11.70 4.06 11.58 4.06L11.58 4.06Q10.93 4.13 10.44 4.96L10.44 4.96Q10.21 5.39 10.07 5.90Q9.93 6.41 9.93 6.97L9.93 6.97ZM14.20 0.98L14.20 0.98Q14.20 0.68 14.41 0.48Q14.61 0.27 14.94 0.24L14.94 0.24Q15.24 0.24 15.45 0.46L15.45 0.46Q15.67 0.67 15.67 0.97L15.67 0.97Q15.67 1.27 15.47 1.47Q15.27 1.67 14.94 1.70L14.94 1.70Q14.66 1.70 14.42 1.49L14.42 1.49Q14.20 1.25 14.20 0.98ZM15.47 5.03L15.47 7.82L15.51 10.07L16.32 10.22L16.32 10.57L14.94 10.53L13.55 10.57L13.55 10.22L14.38 10.07L14.42 7.83L14.42 6.33L14.35 3.97L13.44 3.82L13.44 3.47Q13.74 3.43 14.01 3.39Q14.29 3.35 14.33 3.34L14.33 3.34L15.23 3.11L15.49 3.11L15.47 5.03ZM23.21 3.62L22.64 3.77Q22.34 4.48 21.95 5.53Q21.55 6.58 21.32 7.22L21.32 7.22Q21.01 8.11 20.73 8.92L20.73 8.92Q20.54 9.50 20.16 10.69L20.16 10.69L19.12 10.69L17.92 7.24Q17.47 5.91 17.17 5.09L17.17 5.09Q17.01 4.67 16.67 3.78L16.67 3.78L16.01 3.62L16.01 3.28L17.32 3.31L18.63 3.28L18.63 3.62L17.94 3.77Q18.15 4.53 18.36 5.25Q18.58 5.98 18.85 6.84L18.85 6.84L19.83 9.89L20.78 6.84L21.64 3.78L20.97 3.62L20.97 3.28L22.09 3.31L23.21 3.28L23.21 3.62ZM30.06 6.92L30.06 6.92Q30.06 8.58 29.04 9.66Q28.01 10.74 26.42 10.74L26.42 10.74Q24.83 10.74 23.84 9.66L23.84 9.66Q23.38 9.14 23.13 8.45Q22.89 7.76 22.89 6.92L22.89 6.92Q22.89 5.27 23.92 4.19Q24.95 3.11 26.53 3.11L26.53 3.11Q28.13 3.11 29.10 4.18Q30.06 5.25 30.06 6.92ZM28.94 6.92L28.94 6.92Q28.94 5.55 28.21 4.62Q27.48 3.68 26.39 3.68L26.39 3.68Q25.28 3.68 24.65 4.59Q24.01 5.49 24.01 6.92L24.01 6.92Q24.01 7.64 24.19 8.21Q24.38 8.78 24.75 9.26L24.75 9.26Q25.46 10.16 26.56 10.16L26.56 10.16Q27.65 10.16 28.30 9.26Q28.94 8.36 28.94 6.92Z"></path></g><!----><!----></svg>